<svg width="298" height="89" viewBox="0 0 298 89" fill="none" xmlns="http://www.w3.org/2000/svg">
<path d="M11.1455 1.41016C10.39 1.58049 9.8252 2.25307 9.8252 3.06055V38.9521C9.8252 39.3648 9.93805 39.7654 10.3223 39.9971C10.5521 40.1356 10.8313 40.1744 11.0869 40.1855L11.332 40.1904H11.3418L21.1631 40.002L21.1904 40C22.5012 39.9027 23.6007 39.7437 24.5322 39.4951L24.9209 39.3828H24.9229C25.4655 39.2128 25.9109 39.0719 26.3213 38.8662C26.7446 38.6541 27.1152 38.38 27.5449 37.96L27.5459 37.9609C28.2997 37.2247 28.7786 36.2167 29.0918 35.3193L29.2168 34.9424V34.9414C29.4161 34.2954 29.4914 33.8505 29.5566 33.3809C29.6047 33.035 29.6471 32.6842 29.7295 32.2178L29.8271 31.709L29.8281 31.7002C29.9051 31.2933 29.9821 31.0936 30.0439 31.001C30.0591 30.9783 30.0692 30.9682 30.0732 30.9648C30.0691 30.967 30.0701 30.9654 30.0811 30.9639V40.6025H3.3252C4.29055 40.379 5.00098 39.515 5.00098 38.4971V3.04492C5.00098 2.2593 4.46593 1.60211 3.74121 1.41016H11.1455Z" fill="black" stroke="black"/>
<path d="M292.919 39.6094V39.6104C293.119 40.1545 293.576 40.5534 294.129 40.6797H285.023C285.786 40.6134 286.347 40.4148 286.69 40.0449C287.094 39.6101 287.087 39.0787 286.974 38.6504L286.92 38.4736L283.556 27.9551L283.444 27.6074H271.307C270.576 27.6075 269.927 28.0706 269.7 28.7637L266.426 38.4941L266.425 38.498C266.099 39.4928 266.742 40.5276 267.746 40.6963H262.384C263.721 40.5468 264.895 39.7034 265.449 38.458L265.562 38.1768V38.1758L278.646 0.974609L292.919 39.6094ZM276.203 10.1406L270.286 26.5566L270.044 27.2256H283.287L283.047 26.5566L277.145 10.1406L276.675 8.83398L276.203 10.1406Z" fill="black" stroke="black"/>
<path d="M243.771 1.44141C242.881 1.64012 242.285 2.53373 242.479 3.44238L242.536 3.64844L252.231 31.6455L252.706 33.0166L253.177 31.6445L262.146 5.48828C262.425 4.70669 262.603 4.07125 262.675 3.55664C262.745 3.04925 262.722 2.59461 262.529 2.22461C262.323 1.83053 261.974 1.62442 261.6 1.51953C261.508 1.49382 261.411 1.47323 261.312 1.45703H265.748C265.176 1.62622 264.742 1.98116 264.417 2.38672C263.985 2.92483 263.726 3.57212 263.553 4.02734C260.897 10.9667 257.667 20.3524 255.104 27.998C253.821 31.8219 252.705 35.2128 251.909 37.6475C251.511 38.8647 251.194 39.8435 250.976 40.5176C250.896 40.7628 250.829 40.9674 250.776 41.1289L237.83 4.38477L237.826 4.375L237.71 4.07617C237.433 3.38746 237.109 2.75746 236.663 2.28125C236.262 1.85212 235.772 1.55923 235.167 1.44141H243.771Z" fill="black" stroke="black"/>
<path d="M150.653 0.546875H150.729C150.749 0.572953 150.768 0.611752 150.768 0.674805V9.62012C150.768 9.85665 150.752 10.0132 150.731 10.1133C150.728 10.1297 150.722 10.1431 150.719 10.1553L150.717 10.1562C150.706 10.1562 150.692 10.163 150.65 10.1094C150.59 10.0315 150.504 9.85422 150.439 9.49414C149.895 6.09935 147.784 3.32199 145.143 1.95703C142.485 0.583938 139.275 0.64082 136.646 2.95117L136.619 2.97559L136.595 3.00391C134.773 5.15665 134.185 8.40345 135.181 11.3652L135.185 11.377L135.189 11.3896C135.411 11.9499 135.626 12.4679 135.97 13.0225C136.271 13.5089 136.664 14.0109 137.235 14.5996L137.491 14.8574L137.492 14.8584C137.803 15.1634 138.362 15.5381 139.009 15.9297C139.67 16.3299 140.468 16.774 141.29 17.2168C142.963 18.1179 144.657 18.9742 145.685 19.5342C148.021 20.9413 148.949 21.5115 150.363 22.9219L150.371 22.9297L150.379 22.9365C153.161 25.4867 153.937 28.9087 153.242 32.1016C152.545 35.306 150.368 38.2622 147.266 39.8242L147.25 39.832C144.036 41.5945 139.873 41.7431 136.361 40.4941L136.023 40.3691L136.013 40.3652L135.428 40.1416C134.84 39.9059 134.246 39.6403 133.676 39.4062C133.306 39.2546 132.947 39.1167 132.627 39.0244C132.361 38.9477 132.07 38.8858 131.805 38.9014L131.692 38.9131H131.691C131.344 38.966 131.071 39.1244 130.877 39.3604C130.693 39.5832 130.605 39.8441 130.558 40.0664C130.51 40.2882 130.494 40.5159 130.48 40.6865C130.465 40.8838 130.455 40.9826 130.438 41.0371C130.403 41.1547 130.345 41.2119 130.295 41.2441C130.236 41.2822 130.174 41.293 130.146 41.293C130.105 41.2929 130.063 41.2782 130.024 41.2344C129.985 41.1894 129.922 41.0798 129.922 40.8516V30.4844C129.925 30.299 129.965 30.2006 129.99 30.1582C129.995 30.1623 130.001 30.1658 130.007 30.1719C130.038 30.2053 130.08 30.2691 130.112 30.376L130.141 30.4971L130.145 30.5195L130.15 30.542C130.566 32.1275 131.034 33.5998 131.796 34.9541L131.952 35.2236L131.958 35.2334C132.969 36.8347 133.883 38.2124 135.144 39.2217C136.345 40.1829 137.827 40.7864 139.938 41.0117L140.368 41.0518H140.369C144.419 41.363 147.003 39.7546 148.263 37.3105C149.499 34.9124 149.411 31.8062 148.364 29.1641L148.358 29.1494L148.352 29.1348L148.095 28.6152C147.487 27.4519 146.82 26.6251 145.871 25.8545C145.077 25.2097 144.088 24.6072 142.792 23.873L141.391 23.0889C140.04 22.3285 138.245 21.3672 136.577 20.3008C134.895 19.2251 133.423 18.09 132.683 17.0117L132.679 17.0049L132.674 16.999L132.481 16.7256C130.56 13.8704 130.601 9.96715 131.927 6.71289C133.642 2.77181 138.356 0.293482 142.624 0.995117L142.632 0.99707L142.639 0.998047C143.714 1.14366 145.254 1.57333 146.06 1.84082L146.356 1.94434L146.359 1.94531C147.109 2.21829 147.702 2.40319 148.174 2.49805C148.635 2.59091 149.048 2.61183 149.397 2.4873C149.782 2.35003 150.005 2.06965 150.146 1.76172C150.274 1.4806 150.353 1.13029 150.432 0.791992C150.456 0.692093 150.477 0.629133 150.495 0.588867C150.501 0.574817 150.506 0.565384 150.51 0.55957C150.529 0.554357 150.571 0.546895 150.653 0.546875Z" fill="black" stroke="black"/>
<path d="M213.233 0.978516C210.647 1.46093 208.548 2.81879 206.991 5.0957L206.814 5.36035C205.037 8.11695 204.152 11.1593 203.668 14.29L203.576 14.917C203.172 17.8509 203.097 20.7807 203.255 23.7148L203.337 24.9727V24.9736C203.561 27.8457 204.08 30.688 205.222 33.3799L205.458 33.917L205.459 33.918C207.261 37.8244 210.052 40.6415 214.552 41.2334L214.993 41.2842H214.995C215.039 41.2882 215.083 41.2893 215.127 41.293C211.15 41.1473 207.559 39.699 204.401 36.8223L203.993 36.4395C199.891 32.4992 197.889 27.6417 197.688 22.0068L197.698 22.0166L197.693 20.8057C197.678 16.6593 198.463 12.7546 200.653 9.25684L200.869 8.91895C203.896 4.3108 207.997 1.62711 213.233 0.978516ZM217.114 0.870117C220.268 1.07725 222.931 2.01768 225.184 3.56445C227.666 5.2696 229.676 7.72731 231.289 10.8018L231.606 11.4248C233.343 14.9448 233.823 18.7474 233.595 22.6787L233.54 23.4668V23.4678C233.237 27.3128 232.042 30.8215 229.808 33.9307L229.347 34.5469C226.837 37.7792 223.766 40.1083 219.769 40.9111L219.379 40.9844H219.378C219.089 41.0348 218.801 41.0776 218.516 41.1162C220.217 40.759 221.781 39.9628 223.138 38.6055L223.354 38.3828C224.644 37.014 225.475 35.3781 226.131 33.7031C227.652 29.8332 228.055 25.7923 228.098 21.3164L228.127 21.2881L228.116 21.0664C228.093 20.5905 228.078 19.8265 228.031 18.9932L227.974 18.1455C227.75 15.1286 227.231 12.1461 226.12 9.28809L225.891 8.71875C225.127 6.89669 224.179 5.13434 222.761 3.66309L222.472 3.37305C220.903 1.85671 219.08 1.1125 217.114 0.870117Z" fill="black" stroke="black"/>
<path d="M190.621 1.37891C189.824 1.51694 189.217 2.20801 189.217 3.04492V38.9521C189.217 39.8234 189.875 40.5381 190.72 40.6338H183.089C183.844 40.4633 184.409 39.7915 184.409 38.9844V19.4629H166.097V38.9844C166.097 39.7698 166.632 40.4262 167.356 40.6182H159.997C160.722 40.4263 161.257 39.7698 161.257 38.9844V3.07617C161.257 2.23908 160.65 1.54798 159.853 1.41016H167.343C166.617 1.60147 166.081 2.25862 166.081 3.04492V18.8311H184.394V3.01367C184.394 2.2282 183.858 1.57101 183.134 1.37891H190.621Z" fill="black" stroke="black"/>
<path d="M123.473 39.5742V39.5752C123.673 40.1193 124.13 40.5182 124.683 40.6445H115.577C116.34 40.5782 116.9 40.3797 117.244 40.0098C117.648 39.5751 117.641 39.0436 117.528 38.6152L117.474 38.4385L114.109 27.9199L113.998 27.5723H101.86C101.13 27.5724 100.481 28.0354 100.254 28.7285L96.9795 38.459L96.9785 38.4629C96.6529 39.4577 97.296 40.4924 98.2998 40.6611H92.9375C94.275 40.5116 95.4484 39.6683 96.0029 38.4229L96.1152 38.1416V38.1406L109.2 0.939453L123.473 39.5742ZM106.757 10.1055L100.84 26.5215L100.598 27.1904H113.841L113.601 26.5215L107.698 10.1055L107.229 8.79883L106.757 10.1055Z" fill="black" stroke="black"/>
<path d="M77.1426 1.23828C76.2533 1.43698 75.6571 2.3306 75.8506 3.23926L75.9082 3.44531L85.6035 31.4424L86.0781 32.8135L86.5488 31.4414L95.5176 5.28516C95.7975 4.50359 95.9743 3.86812 96.0459 3.35352C96.1165 2.84609 96.0945 2.3915 95.9014 2.02148C95.6955 1.6274 95.3462 1.42129 94.9717 1.31641C94.8798 1.29069 94.7831 1.2701 94.6836 1.25391H99.1191C98.5479 1.4232 98.1143 1.77825 97.7891 2.18359C97.3574 2.72171 97.098 3.369 96.9248 3.82422C94.2688 10.7636 91.0393 20.1493 88.4756 27.7949C87.1934 31.6188 86.0771 35.0097 85.2812 37.4443C84.8834 38.6616 84.566 39.6404 84.3477 40.3145C84.2682 40.5597 84.2006 40.7642 84.1484 40.9258L71.2021 4.18164L71.1982 4.17188L71.082 3.87305C70.8048 3.18433 70.4807 2.55433 70.0352 2.07812C69.6336 1.649 69.1437 1.35611 68.5391 1.23828H77.1426Z" fill="black" stroke="black"/>
<path d="M61.7158 1.39453V10.3223C61.6598 9.88943 61.5854 9.39381 61.5049 8.91016C61.3659 8.07539 61.1958 7.19926 61.0459 6.70801L60.9824 6.52246V6.51953L60.7061 5.80957C60.4129 5.08166 60.0405 4.31698 59.3428 3.66406C58.4614 2.83942 57.117 2.23357 54.9043 1.92969L54.4502 1.87305C53.0335 1.71252 50.2386 1.65823 47.8262 1.64258C46.6138 1.63472 45.4882 1.6367 44.666 1.64062C44.2549 1.64259 43.9193 1.64452 43.6865 1.64648C43.5703 1.64747 43.4796 1.6488 43.418 1.64941C43.3872 1.64972 43.3635 1.64924 43.3477 1.64941C43.34 1.6495 43.3341 1.65035 43.3301 1.65039H43.3232L42.8301 1.65527L42.8291 2.14941L42.7979 19.0986L42.7969 19.5762L43.2734 19.5986H43.2744L43.2764 19.5996C43.2775 19.5997 43.2793 19.5995 43.2812 19.5996C43.2856 19.5998 43.2918 19.6003 43.2998 19.6006C43.316 19.6013 43.3402 19.6014 43.3711 19.6025C43.4331 19.6047 43.5242 19.6077 43.6426 19.6104C43.8799 19.6156 44.2273 19.6202 44.6719 19.6172C45.339 19.6127 46.2254 19.5916 47.2861 19.5312L48.4033 19.457H48.4053C48.8952 19.4183 49.7419 19.3582 50.5557 19.248C50.9628 19.1929 51.3719 19.1241 51.7314 19.0361C52.0784 18.9512 52.4287 18.8366 52.6836 18.6709L52.6826 18.6699C52.9515 18.4968 53.1608 18.3303 53.3457 18.1289C53.4367 18.0298 53.5182 17.9258 53.5967 17.8154L53.8281 17.4629C54.0163 17.1568 54.1176 16.8408 54.1924 16.5342C54.2295 16.382 54.262 16.2257 54.293 16.0732C54.3245 15.918 54.3552 15.7639 54.3926 15.6035C54.5525 14.9177 54.7117 14.1085 54.8691 13.2764L54.8682 13.2754C54.8995 13.1137 54.9246 12.8896 54.9492 12.7002C54.9763 12.4923 55.008 12.2891 55.0547 12.1104C55.1031 11.925 55.1566 11.8107 55.2031 11.752C55.2048 11.7499 55.2065 11.7479 55.208 11.7461C55.2366 11.809 55.2678 11.9118 55.29 12.0605C55.3438 12.4203 55.3262 12.8291 55.3262 13.1045V27.6689C55.3261 27.8777 55.293 28.0202 55.2559 28.0918C55.2518 28.0996 55.2479 28.1052 55.2451 28.1094L55.2432 28.1104C55.2029 28.1103 55.1844 28.1044 55.1797 28.1025C55.1764 28.1012 55.1751 28.0999 55.1719 28.0967C55.1602 28.0851 55.1281 28.0427 55.0957 27.9268C55.0638 27.8125 55.0432 27.674 55.0225 27.5039C55.0131 27.4269 55.0036 27.3384 54.9912 27.248L54.9443 26.9795V26.9775L54.8799 26.6582C54.8177 26.3157 54.7608 25.908 54.7041 25.4941C54.6493 25.0941 54.5936 24.6813 54.5332 24.3457L54.4717 24.0391L54.4697 24.0342L54.332 23.5166C54.1887 23.0279 54.0278 22.6207 53.8311 22.2598C53.6324 21.8953 53.4033 21.5896 53.1338 21.2998L52.8506 21.0137C52.3424 20.525 51.4644 20.0784 50.5176 19.9805L50.3281 19.9658H50.3242C49.4383 19.9264 47.6751 19.8713 46.1377 19.8262C45.3683 19.8036 44.6538 19.783 44.1318 19.7686C43.8708 19.7613 43.6575 19.756 43.5098 19.752C43.4362 19.75 43.3789 19.7481 43.3398 19.7471C43.3204 19.7465 43.305 19.7464 43.2949 19.7461C43.2899 19.746 43.2858 19.7452 43.2832 19.7451H43.2793L42.7656 19.7314L42.7666 20.2461L42.7979 39.7383L42.7988 40.2432L43.3037 40.2373L54.5098 40.0957L54.5088 40.0947C55.8241 40.0945 57.4889 39.9869 58.5645 39.6787L58.7715 39.6143C60.0094 39.1969 60.9592 38.3655 61.6084 37.3945C62.2597 36.4204 62.5118 35.5609 62.7686 34.2812C62.8401 33.9285 62.8902 33.5214 62.9375 33.1338C62.9859 32.7369 63.0329 32.3557 63.0986 32.0176C63.166 31.6712 63.2441 31.4206 63.333 31.2676C63.3665 31.21 63.3945 31.1807 63.4111 31.166H63.4697C63.4984 31.2163 63.5486 31.3576 63.542 31.6582L63.3174 40.6338H36.1191C37.1834 40.4744 38.0059 39.5575 38.0059 38.4502V3.06055C38.0059 2.22364 37.3984 1.53257 36.6016 1.39453H61.7158Z" fill="black" stroke="black"/>
<path d="M260.038 48.5742C258.974 48.7337 258.151 49.6507 258.151 50.7578V86.1475C258.151 86.9829 258.757 87.6738 259.552 87.8135H234.441V78.8701C234.497 79.303 234.572 79.7985 234.652 80.2822C234.791 81.1171 234.962 81.9931 235.112 82.4844L235.175 82.6709L235.176 82.6729C235.533 83.589 235.884 84.6578 236.814 85.5283C237.696 86.3531 239.041 86.9588 241.254 87.2627L241.708 87.3193C243.125 87.4798 245.92 87.5351 248.332 87.5508C249.544 87.5586 250.669 87.5567 251.491 87.5527C251.902 87.5508 252.238 87.5479 252.471 87.5459C252.587 87.5449 252.678 87.5436 252.739 87.543H252.828C252.83 87.543 252.831 87.542 252.832 87.542H252.834L253.327 87.5371L253.328 87.043L253.359 70.0938L253.36 69.6162L252.884 69.5938H252.882C252.881 69.5937 252.878 69.5929 252.876 69.5928C252.872 69.5926 252.865 69.5931 252.857 69.5928C252.841 69.5921 252.818 69.5909 252.787 69.5898C252.725 69.5877 252.633 69.5847 252.515 69.582C252.277 69.5768 251.93 69.5722 251.485 69.5752C250.818 69.5797 249.932 69.6007 248.871 69.6611L247.754 69.7354H247.753C247.263 69.7741 246.415 69.8341 245.602 69.9443C245.195 69.9995 244.785 70.0693 244.426 70.1572C244.122 70.2315 243.817 70.3279 243.574 70.4619L243.477 70.5195C243.207 70.6932 242.998 70.8615 242.812 71.0635C242.721 71.1627 242.639 71.2665 242.561 71.377L242.329 71.7305C242.141 72.0364 242.04 72.3517 241.965 72.6582C241.928 72.8103 241.896 72.9667 241.865 73.1191L241.765 73.5889C241.685 73.9319 241.605 74.306 241.525 74.6982L241.288 75.917C241.257 76.0787 241.233 76.3028 241.208 76.4922C241.181 76.7001 241.15 76.9033 241.104 77.082C241.055 77.2677 241.001 77.3817 240.954 77.4404C240.952 77.4425 240.95 77.4435 240.948 77.4453C240.92 77.3823 240.889 77.2802 240.867 77.1328C240.813 76.7729 240.832 76.3633 240.832 76.0879V61.5244C240.832 61.3154 240.864 61.1723 240.901 61.1006C240.905 61.0926 240.908 61.0862 240.911 61.082C240.912 61.082 240.913 61.082 240.914 61.082C240.955 61.082 240.973 61.089 240.978 61.0908C240.981 61.0921 240.982 61.0927 240.985 61.0957C240.997 61.1073 241.029 61.1503 241.062 61.2666C241.093 61.3809 241.114 61.5193 241.135 61.6895C241.144 61.7663 241.155 61.8542 241.167 61.9443L241.213 62.2139V62.2158C241.301 62.606 241.377 63.1473 241.453 63.6992C241.508 64.099 241.564 64.5112 241.624 64.8467L241.687 65.1533L241.688 65.1582C241.866 65.8876 242.064 66.4513 242.326 66.9326C242.591 67.418 242.91 67.7986 243.306 68.1768V68.1777C243.814 68.6668 244.692 69.1139 245.64 69.2119L245.83 69.2266L245.834 69.2275C246.72 69.267 248.483 69.3211 250.021 69.3662C250.79 69.3888 251.504 69.4094 252.026 69.4238C252.287 69.4311 252.5 69.4364 252.647 69.4404C252.721 69.4424 252.779 69.4443 252.818 69.4453C252.838 69.4458 252.852 69.446 252.862 69.4463C252.867 69.4464 252.871 69.4472 252.874 69.4473H252.878L253.393 69.4609L253.392 68.9463L253.359 49.4541V48.9492L252.854 48.9551L241.647 49.0967C240.332 49.097 238.668 49.2055 237.593 49.5137L237.386 49.5781C236.225 49.9695 235.318 50.725 234.674 51.6182L234.549 51.7979C233.898 52.772 233.645 53.6316 233.389 54.9111C233.317 55.2638 233.268 55.671 233.221 56.0586C233.172 56.4557 233.125 56.8375 233.06 57.1758C232.992 57.522 232.913 57.7719 232.824 57.9248C232.782 57.9967 232.75 58.0254 232.736 58.0352C232.729 58.0403 232.727 58.042 232.714 58.042H232.688C232.659 57.9914 232.61 57.8499 232.616 57.5498L232.84 48.5742H260.038Z" fill="black" stroke="black"/>
<path d="M226.24 48.6016C225.275 48.8253 224.564 49.6892 224.564 50.707V86.1592C224.564 86.9446 225.1 87.6018 225.824 87.7939H218.421C219.176 87.6235 219.741 86.9509 219.741 86.1436V50.2363C219.741 49.8238 219.628 49.4231 219.244 49.1914C219.014 49.0529 218.735 49.0141 218.479 49.0029L218.234 48.998H218.225L208.403 49.1865L208.376 49.1885C207.065 49.2858 205.966 49.4448 205.034 49.6934L204.645 49.8057H204.644C204.101 49.9757 203.655 50.1166 203.245 50.3223C202.927 50.4815 202.639 50.6754 202.333 50.9395L202.02 51.2275C201.266 51.9639 200.787 52.9717 200.474 53.8691L200.35 54.2461L200.349 54.2471C200.149 54.8931 200.074 55.338 200.009 55.8076C199.961 56.1534 199.919 56.5043 199.837 56.9707L199.739 57.4795L199.737 57.4883C199.66 57.8954 199.583 58.0949 199.521 58.1875C199.506 58.2108 199.496 58.2206 199.492 58.2236C199.491 58.224 199.488 58.2232 199.485 58.2236V48.6016H226.24Z" fill="black" stroke="black"/>
<path d="M194.874 48.5234C193.539 48.6745 192.367 49.5171 191.813 50.7607L191.701 51.043L178.615 88.2432L164.359 49.6084C164.159 49.0643 163.703 48.6653 163.149 48.5391H172.245C171.48 48.6049 170.917 48.803 170.572 49.1738C170.115 49.666 170.185 50.2822 170.339 50.7324V50.7334L173.707 61.2646L173.818 61.6123H185.956C186.686 61.6122 187.335 61.1489 187.562 60.4561L190.837 50.7256L190.838 50.7217C191.164 49.7268 190.52 48.6921 189.517 48.5234H194.874ZM174.232 62.6621L180.134 79.0781L180.604 80.3857L181.075 79.0791L186.993 62.6631L187.234 61.9932H173.991L174.232 62.6621Z" fill="black" stroke="black"/>
<path d="M70.2061 48.5234C68.8707 48.6745 67.6994 49.5171 67.1455 50.7607L67.0332 51.043L53.9473 88.2432L39.6914 49.6084C39.4913 49.0643 39.0346 48.6653 38.4814 48.5391H47.5771C46.8117 48.6049 46.2489 48.803 45.9043 49.1738C45.4471 49.666 45.517 50.2822 45.6709 50.7324V50.7334L49.0391 61.2646L49.1504 61.6123H61.2881C62.0184 61.6122 62.6675 61.1489 62.8945 60.4561L66.1689 50.7256L66.1699 50.7217C66.4957 49.7268 65.8525 48.6921 64.8486 48.5234H70.2061ZM49.5645 62.6621L55.4658 79.0781L55.9355 80.3857L56.4072 79.0791L62.3252 62.6631L62.5664 61.9932H49.3232L49.5645 62.6621Z" fill="black" stroke="black"/>
<path d="M121.275 48.6172C120.478 48.7551 119.871 49.4462 119.871 50.2832V86.1904C119.871 87.0258 120.476 87.7166 121.271 87.8564H113.647C114.442 87.7167 115.048 87.0259 115.048 86.1904V50.2832C115.048 49.4464 114.44 48.7554 113.644 48.6172H121.275Z" fill="black" stroke="black"/>
<path d="M144.85 47.9912C146.744 48.144 148.409 48.4304 150.149 49.1152L150.567 49.2861L150.57 49.2881C152.667 50.1675 154.438 51.2015 156.203 52.8125L156.556 53.1426C158.218 54.7443 159.383 56.6441 160.284 58.9521L160.461 59.4199C161.381 61.9274 161.848 65.1154 161.848 67.8945C161.848 70.6815 161.521 73.3463 160.575 75.8281C159.651 78.2134 158.566 80.5034 157.024 82.2852L156.71 82.6348C154.613 84.8698 153.149 85.8692 151.124 86.7637L150.711 86.9414L150.709 86.9424C149.14 87.6128 146.251 88.3472 143.837 88.375C145.297 88.233 146.619 87.7976 147.808 87.2256L148.321 86.9658L148.325 86.9639C149.713 86.2135 150.977 84.9949 151.982 83.6533C152.854 82.4899 153.443 81.6485 154.098 79.9639L154.384 79.1865V79.1855C155.838 74.9846 156.474 70.2455 156.154 65.2832L156.077 64.2871C155.816 61.3936 155.15 56.7827 152.204 52.8076L151.912 52.4248C149.852 49.8094 147.148 48.4267 144.85 47.9912ZM130.985 75.5693C131.068 75.5726 131.072 75.5921 131.059 75.5791C131.061 75.5825 131.082 75.6096 131.1 75.6963C131.12 75.7928 131.126 75.9046 131.133 76.0498C131.137 76.1386 131.142 76.2952 131.175 76.4395C131.369 81.0894 133.241 83.9362 135.262 85.7324L135.669 86.0791C136.458 86.7227 137.312 87.236 138.229 87.6191L137.922 87.5352C136.616 87.1453 135.425 86.5972 134.305 86.1943C133.768 86.0015 133.246 85.8434 132.783 85.792C132.383 85.7475 131.953 85.7751 131.594 86.001L131.444 86.1104C130.868 86.596 130.683 87.2237 130.551 87.5791C130.515 87.6754 130.485 87.7442 130.46 87.7949C130.457 87.7377 130.454 87.6726 130.455 87.5996C130.458 87.3951 130.476 87.1699 130.497 86.958C130.517 86.7609 130.541 86.5476 130.55 86.415L130.549 86.4141C130.59 85.9202 130.642 83.4747 130.683 81.1807C130.703 80.015 130.721 78.8769 130.734 78.0303C130.741 77.607 130.746 77.2564 130.75 77.0117C130.752 76.8894 130.753 76.7929 130.754 76.7275C130.754 76.6951 130.755 76.6701 130.755 76.6533C130.755 76.6452 130.756 76.639 130.756 76.6348V76.6211C130.756 76.4664 130.777 76.1294 130.859 75.8486C130.901 75.7071 130.947 75.6185 130.982 75.5742C130.984 75.5728 130.984 75.5705 130.985 75.5693ZM142.055 47.8516C141.301 47.8931 140.685 47.9877 140.068 48.1094L139.644 48.1963C138.38 48.4616 137.488 48.8685 136.572 49.5957C135.793 50.211 135.307 51.2461 135.055 52.166L134.961 52.5518L134.959 52.5596C134.759 53.575 134.761 54.979 134.761 55.9199V55.9355L134.762 55.9502L134.919 58.5713V58.5703C134.934 59.1687 135.4 59.5554 135.783 59.7617C136.084 59.9239 136.434 60.0335 136.763 60.0811H128.899C129.708 59.9388 130.207 59.2225 130.296 58.4746L130.295 58.4736C130.402 57.6327 130.39 56.1892 130.396 54.9082C130.398 54.2538 130.406 53.6338 130.434 53.126C130.447 52.8722 130.466 52.6539 130.49 52.4775C130.513 52.311 130.538 52.2073 130.558 52.1523C130.56 52.1493 130.563 52.1457 130.566 52.1416C130.591 52.1119 130.632 52.069 130.691 52.0127C130.811 51.9004 130.981 51.7573 131.2 51.5869C131.419 51.417 131.677 51.2259 131.966 51.0186L132.916 50.3525L132.918 50.3516C134.13 49.5081 136.357 48.5427 138.177 48.1768L138.535 48.1123L138.536 48.1113C139.827 47.9003 140.89 47.8365 142.055 47.8516Z" fill="black" stroke="black"/>
<path d="M100.345 83.1289L101.261 84.501V50.2861C101.261 49.4492 100.653 48.7581 99.8564 48.6201H103.301C102.502 48.7592 101.914 49.4556 101.913 50.2842L101.835 80.1641C101.821 80.5225 101.603 82.3618 102.042 84.1201C102.264 85.0083 102.662 85.9193 103.37 86.6299C104.031 87.2925 104.932 87.7491 106.128 87.875H98.3213C98.3026 87.875 98.2823 87.869 98.2646 87.8594L98.2236 87.8242L98.2168 87.8135L78.3223 58.3086L77.4082 56.9521V86.21C77.4084 87.0451 78.0131 87.7351 78.8076 87.875H72.1748L72.1123 87.8711H75.248C76.1839 87.8711 76.9443 87.1144 76.9443 86.1777V48.0645L100.345 83.1289Z" fill="black" stroke="black"/>
</svg>
