<svg xmlns="http://www.w3.org/2000/svg" width="332" height="101" viewBox="0 0 332 101" fill="none"><path d="M34.2247 46.7633V44.6475V36.5166C34.2247 36.4641 34.2247 36.4117 34.2247 36.3592V35.415C34.2247 35.1352 33.9976 34.9079 33.718 34.9079H33.7005C33.2462 34.9079 33.019 35.2576 32.8443 36.1843C32.4948 37.8805 32.5997 38.3701 32.1803 39.734C31.8483 40.8006 31.3241 42.0246 30.4679 42.864C29.5767 43.7383 29.0001 43.9306 27.777 44.3153C26.7111 44.6475 25.4005 44.8573 23.758 44.9798L12.8545 45.1896C12.1206 45.1896 11.7361 45.1021 11.7361 44.3677V4.3775C11.7361 3.64309 12.3303 3.04857 13.0641 3.04857H16.3492C16.6462 3.04857 16.8734 2.80377 16.8734 2.50651C16.8734 2.20925 16.6288 1.98193 16.3492 1.98193H0.797647C0.500595 1.98193 0.273438 2.22674 0.273438 2.50651C0.273438 2.78628 0.518069 3.03109 0.797647 3.03109H3.9429C4.6768 3.03109 5.2709 3.62561 5.2709 4.36002V43.8607C5.2709 44.8748 4.44964 45.7142 3.41869 45.7142H0.797647C0.500595 45.7142 0.273438 45.959 0.273438 46.2387C0.273438 46.5185 0.518069 46.7633 0.797647 46.7633H34.2247Z" fill="black"></path><path d="M331.065 46.3017C331.065 46.0044 330.82 45.7771 330.541 45.7771H327.238C326.679 45.7771 326.19 45.4274 325.998 44.9028L310.009 1.46785V1.45037C309.939 1.31048 309.782 1.20557 309.625 1.20557C309.468 1.20557 309.31 1.31048 309.241 1.45037V1.48534L294.58 43.3116C294.056 44.7979 292.658 45.7771 291.103 45.7771H289.076C288.779 45.7771 288.552 46.0219 288.552 46.3192C288.552 46.6164 288.796 46.8612 289.076 46.8612H302.304C302.601 46.8612 302.828 46.6164 302.828 46.3192C302.828 46.0219 302.583 45.7771 302.304 45.7771H297.848C296.939 45.7771 296.31 44.8853 296.59 44.0285L300.224 33.1873C300.399 32.6452 300.906 32.278 301.482 32.278H314.553L318.292 44.011C318.589 44.8679 318.362 45.7422 316.09 45.7596H311.075C310.778 45.7596 310.551 46.0044 310.551 46.3017C310.551 46.599 310.796 46.8438 311.075 46.8438H330.593C330.89 46.8438 331.118 46.599 331.118 46.3017H331.065ZM300.871 30.7393L307.441 12.449L313.993 30.7393H300.871Z" fill="black"></path><path d="M300.088 2.57478C300.088 2.27752 299.843 2.0502 299.564 2.0502H285.917C285.62 2.0502 285.392 2.295 285.392 2.57478C285.392 2.85455 285.637 3.09935 285.917 3.09935H289.359C291.264 3.09935 292.015 3.48404 290.792 6.91128L280.832 36.0603L270.068 4.86543C269.771 4.00862 270.418 3.09935 271.326 3.09935H277.337C277.634 3.09935 277.861 2.85455 277.861 2.55729C277.861 2.26003 277.617 2.03271 277.337 2.03271H257.47C257.172 2.03271 256.945 2.27752 256.945 2.55729C256.945 2.83707 257.19 3.08187 257.47 3.08187C257.47 3.08187 259.776 3.08187 260.667 3.08187C262.362 3.08187 263.131 4.2884 263.795 6.05447L278.333 47.4611C278.403 47.601 278.525 47.6884 278.7 47.6884C278.875 47.6884 278.997 47.5835 279.067 47.4611C279.067 47.4611 287.507 21.1098 293.395 5.66978C293.78 4.6556 294.444 3.08187 296.086 3.0469H299.529C299.826 3.0469 300.053 2.80209 300.053 2.50483L300.088 2.57478Z" fill="black"></path><path d="M167.547 0.979492C167.879 0.979492 168.211 1.27675 168.211 1.73139V11.6983C168.211 12.8349 167.914 12.8524 167.6 12.8524C167.215 12.8524 166.901 12.5377 166.744 11.6459C165.59 4.42421 157.797 -0.12212 152.345 4.6865C150.458 6.9247 149.829 10.3344 150.878 13.4644C151.367 14.7059 151.769 15.6152 153.306 17.1365C154.477 18.2905 160.051 21.0358 162.288 22.2598C164.891 23.8336 165.975 24.498 167.6 26.1242C174.1 32.1044 171.217 42.2112 164.018 45.8483C160.174 47.9641 155.194 48.069 151.087 46.4778C149.34 45.8483 147.365 44.7642 146.562 44.8866C145.531 45.044 145.775 46.3379 145.618 46.8625C145.461 47.3871 145.024 47.5444 144.762 47.5444C144.36 47.5444 143.958 47.2122 143.958 46.4953V34.9371C143.975 33.6956 145.111 33.7131 145.303 34.8672C145.793 36.7382 146.334 38.4168 147.243 39.9381C149.497 43.5227 151.122 45.7609 156.155 46.1631C164.769 46.8275 166.709 39.3436 164.472 33.6781C163.022 30.5831 161.484 29.7088 156.976 27.1909C154.005 25.5122 148.903 22.8544 147.121 20.249C144.622 16.8392 144.657 12.1005 146.23 8.23614C148.239 3.60238 153.726 0.717204 158.706 1.53904C160.121 1.73139 162.2 2.34339 162.952 2.62317C166.254 3.82969 166.377 3.3226 166.744 1.73139C166.866 1.22429 167.023 1.03195 167.53 1.03195L167.547 0.979492Z" fill="black"></path><path d="M219.2 24.1723C219.183 19.3287 220.126 14.7299 222.817 10.6207C226.731 4.64053 232.253 1.47558 239.435 1.35318C248.311 1.21329 254.147 5.84705 257.904 13.4709C260.019 17.7724 260.49 22.4237 260.106 27.1798C259.739 31.8486 258.219 36.0977 255.336 39.8221C252.4 43.6166 248.748 46.3619 243.925 47.2012C237.233 48.3728 231.309 46.7641 226.364 41.9904C221.594 37.3916 219.322 31.6912 219.183 25.099C219.183 24.7843 219.183 24.4695 219.183 24.1548L219.2 24.1723ZM252.977 24.487C252.942 23.7526 252.924 22.5111 252.819 21.2521C252.557 17.7025 251.928 14.2228 250.548 10.918C249.657 8.78468 248.556 6.77381 246.878 5.14762C244.589 2.92691 241.776 2.26244 238.683 2.4373C235.101 2.64713 232.305 4.22086 230.348 7.26341C228.304 10.4458 227.343 13.9955 226.836 17.685C226.329 21.3745 226.294 25.0641 226.574 28.7711C226.836 32.1458 227.465 35.4507 228.88 38.5457C230.89 42.9172 233.983 45.9422 239.015 46.4318C242.405 46.7466 245.446 45.9247 247.839 43.3718C249.202 41.9205 250.093 40.1719 250.81 38.3358C252.487 34.0518 252.924 29.5579 252.959 24.5045L252.977 24.487Z" fill="black"></path><path d="M215.375 45.7004H212.23C211.496 45.7004 210.902 45.1059 210.902 44.3715V4.36374C210.902 3.62933 211.496 3.03481 212.23 3.03481H215.375C215.672 3.03481 215.917 2.79001 215.917 2.49275C215.917 2.19549 215.672 1.95068 215.375 1.95068H199.963C199.666 1.95068 199.439 2.19549 199.439 2.47526C199.439 2.75503 199.684 2.99984 199.963 2.99984H203.109C203.842 2.99984 204.437 3.59436 204.437 4.32876V21.395H185.216V4.36374C185.216 3.62933 185.81 3.03481 186.544 3.03481H189.689C189.986 3.03481 190.213 2.79001 190.213 2.51023C190.213 2.23046 189.968 1.98566 189.689 1.98566H174.277C173.98 1.98566 173.735 2.23046 173.735 2.52772C173.735 2.82498 173.98 3.06978 174.277 3.06978H177.422C178.156 3.06978 178.75 3.6643 178.75 4.39871V44.4064C178.75 45.1408 178.156 45.7354 177.422 45.7354H174.277C173.98 45.7354 173.753 45.9802 173.753 46.2599C173.753 46.5397 173.997 46.7845 174.277 46.7845H189.706C190.003 46.7845 190.23 46.5397 190.23 46.2599C190.23 45.9802 189.986 45.7354 189.706 45.7354H186.561C185.827 45.7354 185.233 45.1408 185.233 44.4064V23.2135H204.454V44.4064C204.454 45.1408 203.86 45.7354 203.126 45.7354H199.981C199.684 45.7354 199.457 45.9802 199.457 46.2774C199.457 46.5747 199.701 46.802 199.981 46.802H215.393C215.69 46.802 215.934 46.5572 215.934 46.2599C215.934 45.9627 215.69 45.7179 215.393 45.7179L215.375 45.7004Z" fill="black"></path><path d="M142.945 46.2744C142.945 45.9771 142.7 45.7498 142.421 45.7498H139.118C138.559 45.7498 138.07 45.4001 137.878 44.8755L121.889 1.44051V1.42303C121.819 1.28314 121.662 1.17822 121.505 1.17822C121.348 1.17822 121.19 1.28314 121.12 1.42303V1.458L106.46 43.2843C105.936 44.7706 104.538 45.7498 102.983 45.7498H100.956C100.659 45.7498 100.432 45.9946 100.432 46.2918C100.432 46.5891 100.676 46.8339 100.956 46.8339H114.183C114.48 46.8339 114.708 46.5891 114.708 46.2918C114.708 45.9946 114.463 45.7498 114.183 45.7498H109.728C108.819 45.7498 108.19 44.858 108.47 44.0012L112.104 33.1599C112.279 32.6179 112.786 32.2507 113.362 32.2507H126.432L130.172 43.9837C130.469 44.8405 130.242 45.7148 127.97 45.7323H122.955C122.658 45.7323 122.431 45.9771 122.431 46.2744C122.431 46.5716 122.676 46.8164 122.955 46.8164H142.473C142.77 46.8164 142.997 46.5716 142.997 46.2744H142.945ZM112.751 30.7119L119.321 12.4217L125.873 30.7119H112.751Z" fill="black"></path><path d="M115.092 2.33308C115.092 2.03582 114.847 1.8085 114.567 1.8085H100.921C100.623 1.8085 100.396 2.0533 100.396 2.33308C100.396 2.61285 100.641 2.85766 100.921 2.85766H104.363C106.267 2.85766 107.019 3.24235 105.796 6.66958L95.8357 35.8186L85.0719 4.62373C84.7749 3.76692 85.4214 2.85766 86.33 2.85766H92.341C92.638 2.85766 92.8652 2.61285 92.8652 2.31559C92.8652 2.01833 92.6205 1.79102 92.341 1.79102H72.4734C72.1764 1.79102 71.9492 2.03582 71.9492 2.31559C71.9492 2.59537 72.1939 2.84017 72.4734 2.84017C72.4734 2.84017 74.78 2.84017 75.6711 2.84017C77.366 2.84017 78.1349 4.0467 78.7989 5.81277L93.337 47.2194C93.4069 47.3593 93.5292 47.4467 93.7039 47.4467C93.8786 47.4467 94.001 47.3418 94.0709 47.2194C94.0709 47.2194 102.511 20.8681 108.399 5.42808C108.784 4.4139 109.448 2.84017 111.09 2.8052H114.532C114.83 2.8052 115.057 2.5604 115.057 2.26313L115.092 2.33308Z" fill="black"></path><path d="M70.7085 35.1118C69.6601 35.1118 69.7126 37.5773 69.4155 39.0461C69.1359 40.445 68.8738 41.3192 68.2098 42.3159C67.5458 43.3126 66.5848 44.152 65.3441 44.5716C64.2608 44.9388 62.3387 45.0787 60.7835 45.0787L48.3423 45.2361L48.3073 23.5186C48.3073 23.5186 54.161 23.676 56.1181 23.7634C57.114 23.8159 58.0576 24.288 58.5644 24.7776C59.3856 25.5645 59.8225 26.2989 60.2069 27.8726C60.3816 28.6245 60.5214 30.2157 60.7311 31.1425C60.8709 31.7719 60.766 32.8386 61.6048 32.8386C62.094 32.8386 62.2513 32.3315 62.2513 31.7894V15.5625C62.2513 15.0205 62.3387 13.4817 61.6222 13.4642C60.766 13.4467 60.766 15.0205 60.6437 15.65C60.469 16.5767 60.2943 17.4685 60.1195 18.2204C59.9448 18.9723 59.8924 19.5843 59.5604 20.1263C59.2284 20.6684 59.0012 20.9482 58.4595 21.2979C57.6557 21.8225 55.0696 21.9973 53.9688 22.0848C50.5265 22.347 48.3423 22.2421 48.3423 22.2421L48.3772 3.35737C48.3772 3.35737 57.5858 3.25245 60.6612 3.60217C66.0606 4.21418 66.6372 6.31248 67.4584 8.42828C67.773 9.25011 68.3147 12.6773 68.3496 13.6391C68.3496 14.2686 68.5243 14.5658 68.8738 14.5658C69.1883 14.5658 69.3456 14.2686 69.3456 13.6915V3.5672C69.3456 2.50056 69.3456 1.9585 69.3456 1.9585H37.4387C37.1417 1.9585 36.9145 2.2033 36.9145 2.50056C36.9145 2.79782 37.1591 3.04262 37.4387 3.04262H40.584C41.3179 3.04262 41.912 3.63714 41.912 4.37155V43.8022C41.912 44.8514 41.0558 45.7082 40.0074 45.7082H37.3514C37.0543 45.7082 36.8271 45.953 36.8271 46.2503C36.8271 46.5475 37.0718 46.7923 37.3514 46.7923H71.1104L71.3725 36.2483C71.39 35.4615 71.1279 35.1292 70.761 35.1292L70.7085 35.1118Z" fill="black"></path><path d="M258.639 66.2046C259.688 66.2046 259.635 63.7391 259.932 62.2703C260.212 60.8714 260.474 59.9971 261.138 59.0004C261.802 58.0037 262.763 57.1644 264.004 56.7447C265.087 56.3775 267.009 56.2376 268.564 56.2376L281.006 56.0803L281.041 77.7977C281.041 77.7977 275.187 77.6404 273.23 77.5529C272.234 77.5005 271.29 77.0284 270.784 76.5388C269.962 75.7519 269.526 75.0175 269.141 73.4438C268.966 72.6919 268.827 71.1006 268.617 70.1739C268.477 69.5444 268.582 68.4778 267.743 68.4778C267.254 68.4778 267.097 68.9849 267.097 69.5269V85.7538C267.097 86.2959 267.009 87.8346 267.726 87.8521C268.582 87.8696 268.582 86.2959 268.704 85.6664C268.879 84.7396 269.054 83.8479 269.228 83.096C269.403 82.3441 269.456 81.7321 269.788 81.19C270.12 80.6479 270.347 80.3682 270.888 80.0185C271.692 79.4939 274.278 79.319 275.379 79.2316C278.821 78.9693 281.006 79.0742 281.006 79.0742L280.971 97.959C280.971 97.959 271.762 98.0639 268.687 97.7142C263.287 97.1022 262.711 95.0039 261.89 92.8881C261.575 92.0662 261.033 88.639 260.998 87.6773C260.998 87.0478 260.824 86.7505 260.474 86.7505C260.16 86.7505 260.002 87.0478 260.002 87.6248V97.7666C260.002 98.8333 260.002 99.3753 260.002 99.3753H291.909C292.206 99.3753 292.433 99.1305 292.433 98.8333C292.433 98.536 292.189 98.2912 291.909 98.2912H288.764C288.03 98.2912 287.436 97.6967 287.436 96.9623V57.5316C287.436 56.4824 288.292 55.6256 289.341 55.6256H291.997C292.294 55.6256 292.521 55.3808 292.521 55.0836C292.521 54.7863 292.276 54.5415 291.997 54.5415H258.238L257.975 65.0855C257.958 65.8724 258.22 66.2046 258.587 66.2046H258.639Z" fill="black"></path><path d="M221.192 54.5571V56.6729V64.8039C221.192 64.8563 221.192 64.9088 221.192 64.9612V65.9055C221.192 66.1853 221.42 66.4126 221.699 66.4126H221.717C222.171 66.4126 222.398 66.0628 222.573 65.1361C222.922 63.44 222.817 62.9504 223.237 61.5865C223.569 60.5198 224.093 59.2958 224.949 58.4565C225.84 57.5822 226.417 57.3898 227.64 57.0052C228.706 56.6729 230.017 56.4631 231.659 56.3407L242.563 56.1309C243.297 56.1309 243.681 56.2183 243.681 56.9527V96.9604C243.681 97.6948 243.087 98.2894 242.353 98.2894H239.068C238.771 98.2894 238.544 98.5342 238.544 98.8314C238.544 99.1287 238.788 99.356 239.068 99.356H254.619C254.917 99.356 255.144 99.1112 255.144 98.8314C255.144 98.5516 254.899 98.3068 254.619 98.3068H251.474C250.74 98.3068 250.146 97.7123 250.146 96.9779V57.4773C250.146 56.4631 250.967 55.6238 251.998 55.6238H254.619C254.917 55.6238 255.144 55.379 255.144 55.0992C255.144 54.8194 254.899 54.5746 254.619 54.5746H221.192V54.5571Z" fill="black"></path><path d="M177.16 55.0268C177.16 55.3241 177.404 55.5514 177.684 55.5514H180.986C181.546 55.5514 182.035 55.9011 182.227 56.4257L198.198 99.8607V99.8782C198.268 100.018 198.425 100.123 198.582 100.123C198.74 100.123 198.897 100.018 198.967 99.8782V99.8432L213.627 58.0169C214.151 56.5306 215.549 55.5514 217.104 55.5514H219.131C219.428 55.5514 219.656 55.3066 219.656 55.0093C219.656 54.7121 219.411 54.4673 219.131 54.4673H205.904C205.607 54.4673 205.38 54.7121 205.38 55.0093C205.38 55.3066 205.624 55.5514 205.904 55.5514H210.36C211.268 55.5514 211.897 56.4432 211.618 57.3L207.983 68.1413C207.809 68.6833 207.302 69.0505 206.725 69.0505H193.655L189.916 57.3175C189.618 56.4607 189.846 55.5864 192.117 55.5689H197.132C197.429 55.5689 197.656 55.3241 197.656 55.0268C197.656 54.7296 197.412 54.4848 197.132 54.4848H177.614C177.317 54.4848 177.09 54.7296 177.09 55.0268H177.16ZM207.354 70.5893L200.784 88.8795L194.231 70.5893H207.354Z" fill="black"></path><path d="M38.7496 55.0268C38.7496 55.3241 38.9942 55.5514 39.2738 55.5514H42.5763C43.1355 55.5514 43.6247 55.9011 43.8169 56.4257L59.7878 99.8607V99.8782C59.8577 100.018 60.015 100.123 60.1723 100.123C60.3295 100.123 60.4868 100.018 60.5567 99.8782V99.8432L75.2171 58.0169C75.7413 56.5306 77.1392 55.5514 78.6943 55.5514H80.7213C81.0183 55.5514 81.2455 55.3066 81.2455 55.0093C81.2455 54.7121 81.0009 54.4673 80.7213 54.4673H67.4937C67.1967 54.4673 66.9695 54.7121 66.9695 55.0093C66.9695 55.3066 67.2141 55.5514 67.4937 55.5514H71.9495C72.8581 55.5514 73.4872 56.4432 73.2076 57.3L69.5731 68.1413C69.3984 68.6833 68.8916 69.0505 68.315 69.0505H55.2447L51.5053 57.3175C51.2083 56.4607 51.4354 55.5864 53.707 55.5689H58.722C59.019 55.5689 59.2462 55.3241 59.2462 55.0268C59.2462 54.7296 59.0015 54.4848 58.722 54.4848H39.2039C38.9068 54.4848 38.6797 54.7296 38.6797 55.0268H38.7496ZM68.944 70.5893L62.3739 88.8795L55.8213 70.5893H68.944Z" fill="black"></path><path d="M122.5 55.6569H126.117C126.851 55.6569 127.445 56.2514 127.445 56.9858V96.9935C127.445 97.7279 126.851 98.3225 126.117 98.3225H122.5C122.203 98.3225 121.958 98.5673 121.958 98.8645C121.958 99.1618 122.203 99.4066 122.5 99.4066H138.855C139.152 99.4066 139.397 99.1618 139.397 98.8645C139.397 98.5673 139.152 98.3225 138.855 98.3225H135.238C134.504 98.3225 133.91 97.7279 133.91 96.9935V56.9858C133.91 56.2514 134.504 55.6569 135.238 55.6569H138.855C139.152 55.6569 139.397 55.4121 139.397 55.1148C139.397 54.8176 139.152 54.5728 138.855 54.5728H122.5C122.203 54.5728 121.958 54.8176 121.958 55.1148C121.958 55.4121 122.203 55.6569 122.5 55.6569Z" fill="black"></path><path d="M138.613 67.9327C138.613 68.2299 138.858 68.4747 139.155 68.4747H156.279C156.576 68.4747 156.821 68.2299 156.821 67.9327C156.821 67.6354 156.576 67.3906 156.279 67.3906H152.505C151.771 67.3906 150.618 66.936 150.618 66.2016L150.443 63.2814C150.443 62.2148 150.443 60.711 150.653 59.6444C150.88 58.5777 151.404 57.3362 152.243 56.6718C153.186 55.9199 154.095 55.5002 155.423 55.2204C156.664 54.9581 157.764 54.7658 159.669 54.8357C162.29 54.9406 165.872 56.392 168.493 59.7318C171.936 64.1207 172.704 69.349 173.001 72.6539C173.526 78.5116 172.844 84.1071 171.149 89.0207C170.31 91.4337 169.646 92.3954 168.563 93.8468C167.48 95.2981 166.134 96.5921 164.684 97.3789C163.234 98.1483 161.609 98.7428 159.791 98.9002C156.384 99.1974 153.553 98.3406 151.247 96.4522C148.94 94.5637 146.669 91.4512 146.459 86.0655C146.337 85.6983 146.599 84.6142 145.673 84.6142C144.991 84.6142 144.886 85.9431 144.886 86.3453C144.886 86.3453 144.747 96.2423 144.659 97.2215C144.624 97.7636 144.327 99.5122 144.904 99.5122C145.917 99.5122 145.55 98.2008 146.564 97.3439C147.595 96.4697 150.321 98.1658 153.239 99.0401C155.108 99.5996 157.729 100.002 159.809 100.002C162.605 100.002 165.977 99.145 167.812 98.3581C170.38 97.274 172.128 96.1374 174.661 93.4271C176.636 91.3113 177.964 88.5136 179.065 85.6634C180.148 82.8132 180.515 79.7706 180.515 76.6232C180.515 73.4757 179.991 69.8561 178.942 66.9884C177.894 64.1207 176.514 61.7601 174.469 59.7842C172.32 57.7209 170.188 56.4444 167.654 55.3778C165.086 54.2762 162.709 53.9614 159.861 53.8041C157.712 53.6817 156.122 53.6817 153.99 54.0314C151.823 54.3811 149.028 55.5701 147.525 56.6193C146.005 57.6684 144.834 58.5427 144.712 58.8575C144.327 59.8192 144.607 64.2781 144.38 66.0617C144.292 66.7961 143.785 67.3906 143.052 67.3906H139.207C138.91 67.3906 138.683 67.6354 138.683 67.9327H138.613Z" fill="black"></path><path d="M79.7979 99.4309H92.5361C92.8332 99.4309 93.0778 99.1861 93.0778 98.8888C93.0778 98.5915 92.8332 98.3467 92.5361 98.3467H88.0978C87.3639 98.3467 86.7698 97.7522 86.7698 97.0178V66.2426L108.857 99.1161C108.979 99.3085 109.206 99.4309 109.433 99.4309H119.725C120.022 99.4309 120.267 99.1861 120.267 98.8888C120.267 98.5915 120.022 98.3467 119.725 98.3467H118.485C112.963 98.0495 113.854 91.2125 113.889 90.3032L113.976 56.9926C113.976 56.2582 114.553 55.6637 115.287 55.6637H119.743C120.04 55.6637 120.284 55.4189 120.284 55.1216C120.284 54.8243 120.04 54.5795 119.743 54.5795H106.235C105.938 54.5795 105.711 54.8243 105.711 55.1216C105.711 55.4189 105.956 55.6637 106.253 55.6637H110.814C111.547 55.6637 112.142 56.2582 112.142 56.9926V93.2758L86.0709 54.0724C85.9835 53.9326 85.8263 53.8276 85.6515 53.8276H85.4069C85.2671 53.8276 85.1448 53.95 85.1448 54.0899V54.3347V96.9828C85.1448 97.7172 84.5507 98.3118 83.8168 98.3118H79.8503C79.5532 98.3118 79.3086 98.5566 79.3086 98.8538C79.3086 99.1511 79.5532 99.3784 79.8328 99.3959L79.7979 99.4309Z" fill="black"></path></svg>